<?xml version="1.0" encoding="utf-8"?>
<!-- Generator: Adobe Illustrator 19.2.0, SVG Export Plug-In . SVG Version: 6.00 Build 0)  -->
<svg version="1.1" id="Layer_1" xmlns="http://www.w3.org/2000/svg" xmlns:xlink="http://www.w3.org/1999/xlink" x="0px" y="0px"
	 viewBox="0 0 128 128" style="enable-background:new 0 0 128 128;" xml:space="preserve">
<style type="text/css">
	.st0{fill:none;}
	.st1{fill:#000000;}
</style>
<rect x="0" y="0" class="st0" width="128" height="128"/>
<path class="st1" d="M64,122.5C31.7,122.5,5.5,96.3,5.5,64S31.7,5.5,64,5.5c8.9,0,17.4,2,25,5.6l3-3.5C83.6,3.4,74.1,1,64,1
	C29.2,1,1,29.2,1,64s28.2,63,63,63c10.1,0,19.6-2.4,28-6.6l-3-3.5C81.4,120.5,72.9,122.5,64,122.5z M101.7,13.5l-3,3.5
	c14.4,10.7,23.8,27.8,23.8,47s-9.4,36.4-23.8,47l2.9,3.5C117.1,103,127,84.7,127,64S117.1,25,101.7,13.5z M88.5,29l-3,3.5
	c10.1,6.9,16.7,18.4,16.7,31.5s-6.6,24.7-16.7,31.5l3,3.5c11-7.7,18.3-20.5,18.3-35S99.5,36.7,88.5,29z M73,35.8
	c0-1.2-0.7-2.3-1.8-2.8c-1.1-0.5-2.4-0.4-3.4,0.4c-5,4-19.9,14.7-27.9,15.8h-0.1c-3.2,0.6-11.2,1.7-11.3,1.7
	c-1.6,0.2-2.7,1.6-2.7,3.1v11.1c0,0.1,0,0.1,0,0.2s0,0.1,0,0.2v8.8c0,1.6,1.2,2.9,2.7,3.1c0.1,0,8.1,1.2,11.3,1.7h0.1
	c8,1.1,22.8,11.8,27.9,15.8c0.6,0.5,1.3,0.7,2,0.7c0.5,0,0.9-0.1,1.4-0.3c1.1-0.5,1.8-1.6,1.8-2.8v-27v-0.1v-0.1V35.8z"/>
</svg>
